<?xml version="1.0" encoding="UTF-8" standalone="no"?>
<svg
   width="120"
   height="120"
   viewBox="0 0 120 120"
   version="1.1"
   id="svg1"
   xmlns="http://www.w3.org/2000/svg"
   xmlns:svg="http://www.w3.org/2000/svg">
  <defs
     id="defs1">
    <style
       id="style1">
      .cls-1 {
        fill-rule: evenodd;
      }
    </style>
  </defs>
  <path
     id="Background"
     class="cls-1"
     d="m 120,37.533 v -4.281 c 0,-1.2 -0.04,-2.4 -0.04,-3.642 -0.046,-2.6398 -0.2733,-5.27332 -0.68,-7.882 -0.4437,-2.60535 -1.2799,-5.12835 -2.48,-7.483 C 114.387,9.48407 110.5201,5.61568 105.76,3.201 103.4034,1.99948 100.8779,1.16293 98.27,0.72 95.6669,0.27364 93.031,0.04618 90.39,0.04 89.19,0 87.99,0 86.75,0 H 33.25 C 32.05,0 30.85,0.04 29.61,0.04 26.9709,0.0865 24.3381,0.31371 21.73,0.72 19.1229,1.166 16.5978,2.00239 14.24,3.201 9.4799,5.61568 5.613,9.48407 3.2,14.245 1.9999,16.59965 1.1637,19.12265 0.72,21.728 0.2737,24.33174 0.0462,26.96829 0.04,29.61 0,30.81 0,32.01 0,33.252 v 53.5 c 0,1.2 0.04,2.4 0.04,3.641 0.046,2.64013 0.2732,5.27399 0.68,7.883 0.4437,2.60503 1.2799,5.12771 2.48,7.482 2.413,4.76093 6.2799,8.62932 11.04,11.044 2.3575,1.19949 4.8826,2.03593 7.49,2.481 2.6031,0.44636 5.239,0.67382 7.88,0.68 1.2,0.04 2.4,0.04 3.64,0.04 h 53.5 c 1.2,0 2.4,-0.04 3.64,-0.04 2.6391,-0.046 5.272,-0.27322 7.88,-0.68 2.6081,-0.44201 5.1337,-1.2786 7.49,-2.481 4.7601,-2.41468 8.627,-6.28307 11.04,-11.044 1.2001,-2.35429 2.0363,-4.87697 2.48,-7.482 0.4464,-2.60407 0.6738,-5.24096 0.68,-7.883 0.04,-1.2 0.04,-2.4 0.04,-3.641 z"
     style="display:inline;fill:#ffffff;fill-opacity:1" />
</svg>
